<svg width="176" height="224" viewBox="0 0 176 224" fill="none" xmlns="http://www.w3.org/2000/svg">
<path d="M88 0C64.6691 0.0264673 42.3013 9.30637 25.8038 25.8038C9.30637 42.3013 0.0264673 64.6691 0 88C0 163.3 80 220.2 83.4 222.6C84.7626 223.507 86.363 223.991 88 223.991C89.637 223.991 91.2374 223.507 92.6 222.6C96 220.2 176 163.3 176 88C175.974 64.6691 166.694 42.3013 150.196 25.8038C133.699 9.30637 111.331 0.0264673 88 0ZM88 56C94.329 56 100.516 57.8768 105.778 61.393C111.041 64.9092 115.142 69.9069 117.564 75.7541C119.986 81.6014 120.62 88.0355 119.385 94.2429C118.15 100.45 115.103 106.152 110.627 110.627C106.152 115.103 100.45 118.15 94.2429 119.385C88.0355 120.62 81.6014 119.986 75.7541 117.564C69.9069 115.142 64.9092 111.041 61.393 105.778C57.8768 100.516 56 94.329 56 88C56 79.5131 59.3714 71.3737 65.3726 65.3726C71.3737 59.3714 79.5131 56 88 56Z" fill="maroon"/>
</svg>
