<svg width="800" height="423" viewBox="0 0 800 423" fill="none" xmlns="http://www.w3.org/2000/svg">
<path d="M486.045 15.2625C484.541 6.44843 476.903 0 467.955 0H55.3594C43.4688 0 33.8406 9.63905 33.8406 21.5078C33.8406 33.3984 43.4688 43.0266 55.3594 43.0266H155.77C167.661 43.0266 177.289 52.6672 177.289 64.5469C177.289 76.4266 167.661 86.0656 155.77 86.0656H21.5188C9.63906 86.0656 0 95.7047 0 107.584C0 119.464 9.63906 129.091 21.5188 129.091H204.509C215.009 129.091 223.528 137.622 223.528 148.122C223.528 158.622 215.009 167.141 204.509 167.141H107.289C95.3984 167.141 85.7703 176.781 85.7703 188.661C85.7703 200.539 95.3984 210.18 107.289 210.18H178.941C189.45 210.18 197.97 218.698 197.97 229.198C197.97 239.697 189.45 248.217 178.941 248.217H80.0234C68.1328 248.217 58.5047 257.856 58.5047 269.736C58.5047 281.616 68.1328 291.255 80.0234 291.255H215.983L224.558 339.758H273.808C270.911 346.795 269.259 354.478 269.259 362.567C269.259 395.763 296.162 422.667 329.359 422.667C362.542 422.667 389.447 395.763 389.447 362.567C389.447 354.478 387.795 346.795 384.898 339.758H541.211L486.045 15.2625ZM355.222 362.566C355.222 376.856 343.648 388.43 329.358 388.43C315.058 388.43 303.483 376.856 303.483 362.566C303.483 352.622 309.15 344.091 317.377 339.756H341.328C349.553 344.091 355.222 352.62 355.222 362.566Z" fill="white"/>
<path d="M799.372 302.07L774.686 180.288L684.547 41.6016H520.428L571.263 339.756H631.294C628.409 346.794 626.756 354.477 626.756 362.566C626.756 395.761 653.661 422.666 686.844 422.666C720.041 422.666 746.944 395.761 746.944 362.566C746.944 354.477 745.292 346.794 742.397 339.756H768.555C777.991 339.756 786.928 335.525 792.902 328.216C798.864 320.92 801.25 311.314 799.372 302.07ZM613.327 97.086H654.442L707.82 179.191H627.333L613.327 97.086ZM712.719 362.566C712.719 376.856 701.145 388.43 686.844 388.43C672.566 388.43 660.981 376.856 660.981 362.566C660.981 352.622 666.661 344.091 674.875 339.756H698.827C707.052 344.091 712.719 352.62 712.719 362.566Z" fill="white"/>
</svg>
