<svg width="577" height="800" viewBox="0 0 577 800" fill="none" xmlns="http://www.w3.org/2000/svg">
<path d="M418.501 597.791V721.225L477.64 745.839V565.444C459.063 578.185 439.25 589.022 418.501 597.791ZM99.0732 565.444V744.608L158.212 719.994V597.791C137.463 589.022 117.65 578.185 99.0732 565.444ZM288.356 624.05C260.43 624.066 232.612 620.59 205.548 613.705V800L288.356 765.536L371.163 799.998V613.705C344.1 620.59 316.281 624.065 288.356 624.05ZM288.356 0C129.356 0 0 129.356 0 288.357C0 447.359 129.356 576.713 288.356 576.713C447.355 576.713 576.713 447.357 576.713 288.356C576.713 129.354 447.357 0 288.356 0ZM288.356 515.78C162.304 515.78 59.753 413.229 59.753 287.178C59.753 161.125 162.304 58.5733 288.356 58.5733C414.407 58.5733 516.958 161.125 516.958 287.178C516.958 413.23 414.409 515.78 288.356 515.78ZM288.356 105.909C188.406 105.909 107.089 187.225 107.089 287.178C107.089 387.13 188.406 468.443 288.356 468.443C388.305 468.443 469.623 387.127 469.623 287.176C469.623 187.225 388.307 105.909 288.356 105.909ZM362.857 392.968L288.356 353.801L213.856 392.968L228.084 310.012L167.812 251.262L251.107 239.157L288.356 163.679L325.606 239.157L408.901 251.262L348.629 310.012L362.857 392.968Z" fill="white"/>
</svg>
