<svg width="699" height="800" viewBox="0 0 699 800" fill="none" xmlns="http://www.w3.org/2000/svg">
<path d="M417.924 144.866L515.052 170.642C517.574 171.158 519.642 173.228 520.227 175.775L545.83 272.897C546.519 275.75 549.013 277.752 551.931 277.752C554.877 277.752 557.37 275.748 558.034 272.897L583.664 175.775C584.22 173.228 586.291 171.158 588.811 170.642L685.945 144.866C688.785 144.334 690.802 141.802 690.802 138.883C690.802 135.938 688.786 133.458 685.945 132.886L588.811 107.125C586.291 106.581 584.22 104.539 583.664 101.992L558.033 4.86875C557.37 2.04375 554.877 0 551.931 0C549.013 0 546.519 2.04375 545.83 4.86875L520.227 101.991C519.642 104.538 517.574 106.58 515.052 107.123L417.924 132.886C415.058 133.456 413.069 135.938 413.069 138.883C413.067 141.802 415.058 144.334 417.924 144.866Z" fill="white"/>
<path d="M76.6 273.958L94.8812 343.353C95.3859 345.409 97.175 346.83 99.2578 346.83C101.355 346.83 103.133 345.411 103.623 343.353L121.917 273.958C122.302 272.128 123.802 270.656 125.619 270.27L195.025 251.884C197.055 251.461 198.502 249.63 198.502 247.559C198.502 245.489 197.055 243.712 195.025 243.287L125.619 224.875C123.8 224.477 122.302 223.044 121.917 221.213L103.623 151.778C103.133 149.763 101.355 148.328 99.2578 148.328C97.175 148.328 95.3859 149.761 94.8812 151.778L76.6 221.213C76.1609 223.044 74.7156 224.477 72.8844 224.875L3.48907 243.287C1.42032 243.712 0 245.489 0 247.559C0 249.628 1.41875 251.459 3.48907 251.884L72.8844 270.27C74.7172 270.656 76.1609 272.128 76.6 273.958Z" fill="white"/>
<path d="M8.63745 574.317V636.827C8.63745 647.135 10.7078 657.178 14.8343 667.155C18.9593 677.105 25.1421 686.986 33.3796 696.646C36.8562 700.691 40.7562 704.697 44.9343 708.638V608.597C42.2015 606.555 39.5484 604.499 36.9624 602.416C26.2015 593.633 16.6906 584.253 8.63745 574.317Z" fill="white"/>
<path d="M73.9595 731.44C83.6438 737.795 94.2579 743.884 105.784 749.587C110.733 752.056 115.892 754.389 121.134 756.672V650.303C104.194 643.458 88.4063 635.858 73.9595 627.565V731.44Z" fill="white"/>
<path d="M150.186 660.905V767.499H148.475C169.156 774.888 191.589 781.217 215.495 786.27V677.967C199.999 674.85 184.983 671.267 170.603 667.181C163.653 665.189 156.833 663.106 150.186 660.905Z" fill="white"/>
<path d="M244.536 791.51C274.411 796.338 306.011 799.334 338.884 800V691.045C306.183 690.408 274.584 687.689 244.536 683.045V791.51Z" fill="white"/>
<path d="M367.936 799.92C402.164 799.258 434.983 796.02 465.913 790.859V682.556C434.811 687.491 401.952 690.45 367.936 691.112V799.92Z" fill="white"/>
<path d="M494.941 785.42C506.377 782.927 517.545 780.206 528.264 777.155C539.383 773.999 550.047 770.549 560.289 766.834V659.67C539.806 666.583 517.944 672.499 494.941 677.249V785.42Z" fill="white"/>
<path d="M589.314 648.792V755.108C606.931 747.147 622.745 738.392 636.489 728.972V625.445C629.298 629.691 621.764 633.789 613.911 637.702C606.03 641.589 597.805 645.277 589.314 648.792Z" fill="white"/>
<path d="M663.792 607.084H665.516V705.175C677.775 692.877 686.661 680.048 691.969 667.155C696.108 657.178 698.177 647.136 698.177 636.827V574.344C697.302 575.431 696.425 576.52 695.495 577.594C686.53 588.088 675.836 597.891 663.792 607.084Z" fill="white"/>
<path d="M691.969 510.228C696.108 500.252 698.177 490.224 698.177 479.928C698.177 469.634 696.108 459.605 691.969 449.63C687.855 439.667 681.675 429.783 673.422 420.139C656.972 400.838 632.244 382.609 601.016 367.194C538.611 336.258 450.664 316.572 353.409 316.625C289.588 316.625 229.769 325.034 178.548 339.614C127.316 354.167 84.7047 374.983 55.3079 398.981C35.661 414.941 22.0235 432.211 14.8329 449.631C10.7079 459.606 8.63599 469.636 8.63599 479.93C8.63599 490.225 10.7063 500.253 14.8329 510.23C18.9579 520.18 25.1407 530.063 33.3782 539.706C49.8547 559.036 74.5829 577.236 105.784 592.666C168.188 623.616 256.155 643.289 353.409 643.25C417.245 643.25 477.056 634.827 528.263 620.234C579.497 605.681 622.133 584.88 651.506 560.894C671.141 544.905 684.805 527.634 691.969 510.228ZM469.867 515.575C465.344 523.745 458.139 530.711 448.336 536.481C438.32 542.372 425.783 546.803 410.739 549.749C404.113 551.049 397.122 551.924 390.017 552.641L392.909 587.836H336.689L336.303 553.331C321.028 552.389 306.481 550.599 292.897 547.813C272.355 543.594 247.07 527.091 247.07 527.091C244.902 526.122 243.588 524.438 243.502 522.581C243.409 520.725 244.483 518.867 246.5 517.566L273.477 499.763C276.297 497.906 280.469 497.574 283.598 498.927C283.598 498.927 301.886 510.349 316.234 513.134C330.694 515.894 345.147 517.3 359.508 517.3C377.658 517.275 392.495 514.992 403.87 510.481C415.145 505.97 420.073 499.152 418.867 490.025C418.025 483.617 414.622 478.67 408.619 475.074C402.722 471.505 393.197 469.317 380.083 468.361L337.253 466C312.047 464.381 292.903 459.805 279.93 452.441C267.188 445.185 261.709 434.519 263.155 420.749C263.923 413.372 266.995 406.952 272.302 401.408C277.495 395.983 284.267 391.458 292.552 387.824C300.784 384.242 310.163 381.536 320.77 379.758C325.147 379.014 329.752 378.538 334.433 378.074L334.255 361.517L374.305 361.411L375.644 377.661C385.322 378.166 394.581 379.042 403.297 380.395C418.214 382.636 434.811 389.628 434.811 389.628C436.867 390.238 438.405 391.313 438.975 392.588C439.545 393.9 439.081 395.174 437.695 396.102L419.514 408.413C417.538 409.739 414.222 410.111 411.33 409.249C411.33 409.249 398.614 404.088 388.067 402.495C377.594 400.905 366.714 400.134 355.327 400.161C340.488 400.188 329.484 401.899 322.341 405.334C315.084 408.836 311.356 413.4 311.205 419.144C311.052 424.411 313.552 428.497 318.845 431.389C324.152 434.308 333.152 436.219 345.948 436.988L381.853 438.897C408.617 440.358 429.517 444.867 444.688 452.563C460.263 460.43 469.788 472.263 473.211 488.486C475.359 498.594 474.244 507.641 469.867 515.575ZM644.395 492.081L602.369 503.225C601.253 503.438 600.352 504.353 600.114 505.48L589.022 547.494C588.731 548.727 587.669 549.602 586.397 549.602C585.122 549.602 584.036 548.727 583.744 547.494L572.653 505.48C572.388 504.352 571.513 503.436 570.399 503.225L528.37 492.081C527.123 491.828 526.248 490.728 526.248 489.481C526.248 488.206 527.123 487.119 528.37 486.867L570.399 475.736C571.513 475.458 572.388 474.622 572.653 473.508L583.744 431.455C584.036 430.208 585.122 429.345 586.397 429.345C587.669 429.345 588.731 430.208 589.022 431.455L600.114 473.508C600.352 474.622 601.255 475.458 602.369 475.736L644.395 486.867C645.617 487.119 646.519 488.206 646.519 489.481C646.519 490.728 645.617 491.828 644.395 492.081Z" fill="white"/>
</svg>
