<svg width="623" height="800" viewBox="0 0 623 800" fill="none" xmlns="http://www.w3.org/2000/svg">
<path d="M621.541 676.323L615.86 643.448C610.98 615.147 591.291 590.545 563.196 577.648L443.593 522.695C428.908 515.963 424.71 494.672 424.286 493.52C422.991 491.605 420.799 490.452 417.432 490.452C417.332 490.452 417.229 490.452 417.129 490.452C414.263 490.816 411.916 492.756 411.141 495.413L397.34 543.853L311.105 700.344L225.086 544.373L211.054 495.413C210.307 492.769 207.954 490.816 204.015 490.378C201.533 490.378 199.254 491.555 197.533 494.455C197.493 494.673 193.34 515.939 178.615 522.695L58.9927 577.648C30.9083 590.556 11.2255 615.145 6.34269 643.448L0.661439 676.323C-1.56981 689.206 1.60519 707.209 13.8489 716.308C15.2896 717.388 17.0974 718.989 19.3864 721.027C41.4021 740.558 108.397 800 311.105 800C513.774 800 580.787 740.558 602.808 721.027C605.101 719.002 606.915 717.388 608.358 716.308C620.607 707.197 623.779 689.194 621.541 676.323Z" fill="white"/>
<path d="M368.101 195.833C397.085 250.228 436.779 324.75 454.104 335.57L457.391 337.62L469.441 243.531C472.744 202.2 459.457 163.078 432.032 133.369C402.054 100.894 357.977 82.2719 311.105 82.2719C264.23 82.2719 220.152 100.894 190.174 133.369C162.746 163.066 149.455 202.2 152.765 243.628L163.727 336.772L167.394 332.769C174.958 324.531 188.588 315.931 205.841 305.037C245.744 279.853 305.719 242.005 352.826 167.337C357.188 175.344 362.383 185.097 368.101 195.833Z" fill="white"/>
<path d="M70.6473 379.195C72.6676 387.602 80.1098 393.473 88.7442 393.473C90.2036 393.473 91.6645 393.291 93.0958 392.952L124.465 385.417C130.449 383.986 135.293 379.655 137.466 373.892L138.758 373.977L138.171 371.623C138.877 368.664 138.896 365.764 138.229 362.973L121.875 295.294C117.954 271.698 115.965 251.525 115.965 235.305C115.965 127.702 203.505 40.1641 311.105 40.1641C418.702 40.1641 506.241 127.702 506.241 235.305C506.241 251.513 504.252 271.698 500.044 296.045L483.977 362.973C483.741 363.969 483.596 364.975 483.54 366.031L482.899 367.462C482.686 367.936 461.06 414.702 393.883 427.887C390.396 421.447 383.669 417.381 376.233 417.381H335.758C324.686 417.381 315.679 426.395 315.679 437.47V453.302C315.679 464.377 324.686 473.391 335.758 473.391H376.233C384.652 473.391 392.168 468.028 395.033 460.156C435.24 453.266 462.13 436.344 477.668 423.266C493.766 409.728 503.389 395.861 508.111 387.916L529.113 392.95C530.541 393.289 532.004 393.472 533.463 393.472C542.097 393.472 549.536 387.6 551.557 379.194L567.625 312.266C570.018 302.281 563.846 292.213 553.866 289.811L542.266 287.033C545.019 267.453 546.416 250.058 546.416 235.305C546.413 105.566 440.854 0 311.105 0C181.357 0 75.7973 105.566 75.7973 235.308C75.7973 250.059 77.1926 267.455 79.9458 287.023L68.3364 289.814C58.3551 292.216 52.1864 302.284 54.5833 312.269L70.6473 379.195Z" fill="white"/>
</svg>
