<svg width="21" height="16" viewBox="0 0 21 16" fill="none" xmlns="http://www.w3.org/2000/svg">
<path d="M1.69729 2.292C3.10029 0.771 5.22329 0 8.00629 0H9.00629V2.819L8.20229 2.98C6.83229 3.254 5.87929 3.793 5.36929 4.584C5.10318 5.01013 4.95226 5.49804 4.93129 6H8.00629C8.2715 6 8.52586 6.10536 8.71339 6.29289C8.90093 6.48043 9.00629 6.73478 9.00629 7V14C9.00629 15.103 8.10929 16 7.00629 16H1.00629C0.741071 16 0.486717 15.8946 0.299181 15.7071C0.111645 15.5196 0.00628783 15.2652 0.00628783 15V10L0.00928785 7.081C0.000287852 6.97 -0.189712 4.34 1.69729 2.292ZM18.0063 16H12.0063C11.7411 16 11.4867 15.8946 11.2992 15.7071C11.1116 15.5196 11.0063 15.2652 11.0063 15V10L11.0093 7.081C11.0003 6.97 10.8103 4.34 12.6973 2.292C14.1003 0.771 16.2233 0 19.0063 0H20.0063V2.819L19.2023 2.98C17.8323 3.254 16.8793 3.793 16.3693 4.584C16.1032 5.01013 15.9523 5.49804 15.9313 6H19.0063C19.2715 6 19.5259 6.10536 19.7134 6.29289C19.9009 6.48043 20.0063 6.73478 20.0063 7V14C20.0063 15.103 19.1093 16 18.0063 16Z" fill="#FF0000"/>
</svg>
