<svg width="41" height="32" viewBox="0 0 41 32" fill="none" xmlns="http://www.w3.org/2000/svg">
<path d="M8.68679 0L0.323109 8.3734C0.263952 8.41839 0.211179 8.47122 0.16624 8.53045L0.0109713 8.6859V8.88782C-0.0036571 8.97643 -0.0036571 9.06684 0.0109713 9.15545L0.0109713 13.9487H2.46965V32H7.38702V13.9487H9.02614V26.2564H13.9435V13.9487H27.0565V26.2564H31.9739V13.9487H33.613V32H38.5303V13.9487H40.989V9.16346C41.0037 9.07485 41.0037 8.98444 40.989 8.89583V8.6859L40.8306 8.52724C40.7873 8.47013 40.7367 8.41895 40.6801 8.375C40.6785 8.37393 40.6769 8.37286 40.6753 8.37179L32.3132 0H31.9739H8.68679ZM9.36549 1.64103H31.6345L38.191 8.20513H2.809L9.36549 1.64103ZM1.65009 9.84615H39.3499V12.3077H37.8484C37.7599 12.293 37.6696 12.293 37.5811 12.3077H34.559C34.513 12.3 34.4664 12.2962 34.4197 12.2965C34.38 12.2973 34.3404 12.3011 34.3013 12.3077H31.292C31.2034 12.293 31.1131 12.293 31.0246 12.3077H28.0025C27.9565 12.3 27.9099 12.2962 27.8632 12.2965C27.8235 12.2973 27.784 12.3011 27.7448 12.3077H13.2616C13.1731 12.293 13.0828 12.293 12.9943 12.3077H9.97216C9.92614 12.3 9.87955 12.2962 9.8329 12.2965C9.7932 12.2973 9.75361 12.3011 9.71445 12.3077H6.70512C6.61662 12.293 6.52631 12.293 6.4378 12.3077H3.41567C3.36965 12.3 3.32306 12.2962 3.27641 12.2965C3.23671 12.2973 3.19712 12.3011 3.15796 12.3077H1.65009V9.84615ZM4.10878 13.9487H5.7479V30.359H4.10878V13.9487ZM10.6653 13.9487H12.3044V24.6154H10.6653V13.9487ZM28.6956 13.9487H30.3347V24.6154H28.6956V13.9487ZM35.2521 13.9487H36.8912V30.359H35.2521V13.9487Z" fill="#FF0000"/>
</svg>
