<svg width="29" height="29" viewBox="0 0 29 29" fill="none" xmlns="http://www.w3.org/2000/svg">
<path d="M7.91379 22.5003L12.1708 18.2433L10.7568 16.8293L6.49979 21.0863L5.70679 20.2933C5.51926 20.1059 5.26495 20.0006 4.99979 20.0006C4.73462 20.0006 4.48031 20.1059 4.29279 20.2933L0.292786 24.2933C0.105315 24.4809 0 24.7352 0 25.0003C0 25.2655 0.105315 25.5198 0.292786 25.7073L3.29279 28.7073C3.48031 28.8948 3.73462 29.0001 3.99979 29.0001C4.26495 29.0001 4.51926 28.8948 4.70679 28.7073L8.70679 24.7073C8.89426 24.5198 8.99957 24.2655 8.99957 24.0003C8.99957 23.7352 8.89426 23.4809 8.70679 23.2933L7.91379 22.5003ZM3.99979 26.5863L2.41379 25.0003L4.99979 22.4143L6.58579 24.0003L3.99979 26.5863Z" fill="#FF0000"/>
<path d="M22.9998 28.0003C21.4091 27.9985 19.884 27.3658 18.7592 26.2409C17.6344 25.1161 17.0017 23.5911 16.9998 22.0003C17.0003 21.4776 17.0709 20.9573 17.2098 20.4533L8.54782 11.7903C8.04354 11.9293 7.52289 11.9999 6.99982 12.0003C6.02225 12.0043 5.05865 11.7683 4.1935 11.3131C3.32835 10.858 2.58807 10.1975 2.03756 9.38966C1.48706 8.58182 1.14314 7.65126 1.03596 6.67958C0.928787 5.70789 1.06162 4.72475 1.42282 3.81635L1.98082 2.39535L5.29282 5.70735C5.48314 5.88908 5.73617 5.99049 5.99932 5.99049C6.26248 5.99049 6.51551 5.88908 6.70582 5.70735C6.79877 5.61456 6.87251 5.50436 6.92282 5.38304C6.97313 5.26173 6.99903 5.13168 6.99903 5.00035C6.99903 4.86901 6.97313 4.73897 6.92282 4.61765C6.87251 4.49634 6.79877 4.38614 6.70582 4.29335L3.39482 0.979348L4.81782 0.422348C5.72621 0.0617907 6.70916 -0.0705125 7.68055 0.0370283C8.65194 0.144569 9.58214 0.488673 10.3897 1.03919C11.1972 1.58972 11.8574 2.32986 12.3125 3.19478C12.7675 4.05971 13.0035 5.02303 12.9998 6.00035C12.9994 6.52309 12.9287 7.0434 12.7898 7.54735L21.4528 16.2103C21.9568 16.0716 22.4771 16.001 22.9998 16.0003C23.9774 15.9964 24.941 16.2324 25.8062 16.6876C26.6713 17.1427 27.4116 17.8032 27.9621 18.611C28.5126 19.4189 28.8565 20.3494 28.9637 21.3211C29.0709 22.2928 28.938 23.2759 28.5768 24.1843L28.0198 25.6053L24.7068 22.2933C24.5165 22.1116 24.2635 22.0102 24.0003 22.0102C23.7372 22.0102 23.4841 22.1116 23.2938 22.2933C23.2008 22.3861 23.127 22.4962 23.0766 22.6175C23.0262 22.7388 23.0002 22.8688 23.0001 23.0001C23 23.1315 23.0258 23.2615 23.0761 23.3829C23.1263 23.5042 23.1999 23.6145 23.2928 23.7073L26.6058 27.0203L25.1838 27.5783C24.4888 27.8548 23.7479 27.998 22.9998 28.0003ZM9.06182 9.47635L19.5228 19.9373L19.2838 20.5473C19.0496 21.1328 18.9581 21.7656 19.0167 22.3935C19.0754 23.0214 19.2826 23.6263 19.6212 24.1582C19.9598 24.6902 20.4202 25.134 20.9642 25.4529C21.5082 25.7718 22.1202 25.9567 22.7498 25.9923L21.8788 25.1223C21.6002 24.8438 21.3792 24.513 21.2284 24.149C21.0776 23.785 21 23.3949 21 23.0008C21 22.6068 21.0776 22.2167 21.2284 21.8527C21.3792 21.4887 21.6002 21.1579 21.8788 20.8793C22.4503 20.3336 23.2101 20.0292 24.0003 20.0292C24.7905 20.0292 25.5503 20.3336 26.1218 20.8793L26.9918 21.7503C26.956 21.1207 26.771 20.5086 26.4519 19.9647C26.1329 19.4207 25.689 18.9604 25.157 18.6218C24.625 18.2832 24.02 18.076 23.3921 18.0173C22.7642 17.9586 22.1314 18.0502 21.5458 18.2843L20.9368 18.5233L10.4768 8.06335L10.7168 7.45335C10.9511 6.86778 11.0426 6.23489 10.9839 5.60696C10.9252 4.97903 10.7179 4.37408 10.3791 3.84209C10.0404 3.31011 9.57995 2.86636 9.03582 2.5475C8.49169 2.22864 7.8795 2.04384 7.24982 2.00835L8.11982 2.87835C8.39845 3.15693 8.61948 3.48767 8.77027 3.85168C8.92107 4.21569 8.99868 4.60584 8.99868 4.99985C8.99868 5.39386 8.92107 5.78401 8.77027 6.14802C8.61948 6.51203 8.39845 6.84277 8.11982 7.12135C7.54832 7.66705 6.78852 7.97154 5.99832 7.97154C5.20813 7.97154 4.44833 7.66705 3.87682 7.12135L3.00682 6.25035C3.04246 6.87993 3.22738 7.49201 3.5463 8.03601C3.86522 8.58002 4.30899 9.04034 4.84095 9.37896C5.37292 9.71758 5.97781 9.92478 6.60567 9.98344C7.23353 10.0421 7.86634 9.95056 8.45182 9.71635L9.06182 9.47635Z" fill="#FF0000"/>
<path d="M28.1228 0.850194C27.5513 0.304493 26.7915 0 26.0013 0C25.2111 0 24.4513 0.304493 23.8798 0.850194L16.3998 8.33019L17.8138 9.74419L25.2938 2.26419C25.4843 2.08239 25.7375 1.98096 26.0008 1.98096C26.2642 1.98096 26.5174 2.08239 26.7078 2.26419C26.8948 2.45198 26.9998 2.70619 26.9998 2.97119C26.9998 3.2362 26.8948 3.49041 26.7078 3.67819L19.2278 11.1582L20.6418 12.5732L28.1218 5.09319C28.6838 4.53018 28.9995 3.76719 28.9995 2.97169C28.9995 2.1762 28.6848 1.41321 28.1228 0.850194Z" fill="#FF0000"/>
</svg>
