<svg width="33" height="32" viewBox="0 0 33 32" fill="none" xmlns="http://www.w3.org/2000/svg">
<path d="M0.645851 5.615C-0.201149 6.463 -0.0201494 7.657 0.653851 8.33C0.680851 8.356 3.38785 10.942 7.19485 14.749C7.24116 14.7958 7.29629 14.833 7.35706 14.8583C7.41782 14.8837 7.48301 14.8967 7.54885 14.8967C7.61469 14.8967 7.67988 14.8837 7.74065 14.8583C7.80141 14.833 7.85654 14.7958 7.90285 14.749C7.99659 14.6552 8.04924 14.5281 8.04924 14.3955C8.04924 14.2629 7.99659 14.1358 7.90285 14.042C7.32885 13.468 6.78285 12.925 6.26485 12.411L7.85385 10.822C7.94493 10.7277 7.99533 10.6014 7.99419 10.4703C7.99305 10.3392 7.94046 10.2138 7.84776 10.1211C7.75506 10.0284 7.62965 9.9758 7.49855 9.97466C7.36745 9.97352 7.24115 10.0239 7.14685 10.115L5.55385 11.708C4.78465 10.9485 4.01298 10.1915 3.23885 9.437L6.85385 5.822C6.94493 5.7277 6.99533 5.6014 6.99419 5.4703C6.99305 5.3392 6.94046 5.21379 6.84776 5.12109C6.75506 5.02839 6.62965 4.9758 6.49855 4.97466C6.36745 4.97352 6.24115 5.02392 6.14685 5.115L2.52085 8.741C1.78485 8.028 1.36085 7.623 1.35385 7.616C1.14285 7.405 0.865851 6.811 1.35385 6.323L6.35385 1.323C6.54685 1.127 7.06085 0.738 7.62485 1.299C7.64985 1.327 10.1749 4.195 14.0289 8.049C14.1232 8.14008 14.2495 8.19048 14.3806 8.18934C14.5116 8.1882 14.6371 8.13561 14.7298 8.04291C14.8225 7.95021 14.875 7.8248 14.8762 7.6937C14.8773 7.5626 14.8269 7.4363 14.7359 7.342C10.9059 3.513 8.39985 0.667 8.35385 0.615C7.42185 -0.315 6.29785 -0.036 5.64685 0.615L0.645851 5.615ZM21.8539 24.115C21.7601 24.0213 21.6329 23.9686 21.5004 23.9686C21.3678 23.9686 21.2406 24.0213 21.1469 24.115L19.5559 25.705C19.0474 25.1898 18.5374 24.6761 18.0259 24.164C17.9315 24.0729 17.8052 24.0225 17.6742 24.0237C17.5431 24.0248 17.4176 24.0774 17.3249 24.1701C17.2322 24.2628 17.1797 24.3882 17.1785 24.5193C17.1774 24.6504 17.2278 24.7767 17.3189 24.871C19.4614 27.0081 21.571 29.1781 23.6469 31.38C23.9899 31.724 24.4599 31.913 24.9699 31.913C25.4949 31.913 26.0259 31.708 26.3549 31.378L31.3529 26.321C31.9819 25.692 32.0179 24.625 31.4309 24.036L24.7249 17.331C24.6306 17.2399 24.5042 17.1895 24.3731 17.1907C24.2421 17.1918 24.1166 17.2444 24.0239 17.3371C23.9312 17.4298 23.8787 17.5552 23.8775 17.6863C23.8764 17.8174 23.9268 17.9437 24.0179 18.038L30.7239 24.743C30.9239 24.943 30.8859 25.375 30.6449 25.616L25.6459 30.673C25.5309 30.789 25.2699 30.913 24.9699 30.913C24.7979 30.913 24.5519 30.871 24.3659 30.684C24.3559 30.673 23.9369 30.226 23.2099 29.465L26.8539 25.821C26.9449 25.7267 26.9953 25.6004 26.9942 25.4693C26.993 25.3382 26.9405 25.2128 26.8478 25.1201C26.7551 25.0274 26.6297 24.9748 26.4986 24.9737C26.3675 24.9725 26.2412 25.0229 26.1469 25.114L22.5179 28.743C21.7683 27.964 21.015 27.1886 20.2579 26.417L21.8539 24.821C21.9473 24.7273 21.9997 24.6003 21.9997 24.468C21.9997 24.3357 21.9473 24.2087 21.8539 24.115ZM0.141851 31.798C0.205658 31.8631 0.286064 31.9096 0.37437 31.9323C0.462675 31.9551 0.555518 31.9532 0.642851 31.927L10.6428 28.948C10.7232 28.9245 10.7962 28.8808 10.8548 28.821L27.9449 11.616C27.9689 11.592 27.9809 11.561 27.9989 11.534L31.6549 7.878C31.8002 7.73374 31.9155 7.56214 31.9943 7.37309C32.073 7.18404 32.1135 6.98128 32.1135 6.7765C32.1135 6.57172 32.073 6.36896 31.9943 6.17991C31.9155 5.99086 31.8002 5.81926 31.6549 5.675L26.4199 0.441C25.8319 -0.147 24.8049 -0.147 24.2169 0.441L20.4779 4.18C20.4539 4.204 20.4409 4.235 20.4229 4.263L3.30685 21.38C3.2509 21.4357 3.20907 21.5039 3.18485 21.579L0.0248506 31.294C-0.00357775 31.3807 -0.00770223 31.4735 0.0129255 31.5623C0.0335533 31.6512 0.078144 31.7327 0.141851 31.798ZM20.8599 5.24L21.8989 6.279L6.37585 21.844L4.64885 21.452L20.8599 5.24ZM6.99985 22.635L22.6069 6.987L25.0429 9.423L9.29485 24.969H6.99985V22.635ZM26.8839 11.265L10.6399 27.619L10.0628 25.617L25.7499 10.13L26.8839 11.265ZM3.99285 22.328L5.99985 22.784V25.469C5.99985 25.6016 6.05253 25.7288 6.1463 25.8226C6.24007 25.9163 6.36724 25.969 6.49985 25.969H9.12385L9.75785 28.169L1.26985 30.698L3.99285 22.328ZM24.9249 1.148C25.031 1.04624 25.1723 0.989424 25.3194 0.989424C25.4664 0.989424 25.6077 1.04624 25.7139 1.148L30.9489 6.383C31.0011 6.43461 31.0425 6.49608 31.0707 6.56384C31.099 6.6316 31.1135 6.7043 31.1134 6.77771C31.1133 6.85112 31.0986 6.92378 31.0702 6.99147C31.0418 7.05916 31.0002 7.12052 30.9479 7.172L27.5769 10.544L21.5539 4.521L24.9249 1.148Z" fill="#FF0000"/>
</svg>
