<svg width="20" height="16" viewBox="0 0 20 16" fill="none" xmlns="http://www.w3.org/2000/svg">
<path d="M2.31283 5H17.6628L16.8128 2H3.18783L2.31283 5ZM4.93783 9H15.0378L14.7878 7H5.21283L4.93783 9ZM3.11283 16C2.81283 16 2.56683 15.8877 2.37483 15.663C2.1835 15.4377 2.1045 15.175 2.13783 14.875L3.21283 7H0.987833C0.6545 7 0.392166 6.86667 0.200833 6.6C0.00883283 6.33333 -0.0455004 6.04167 0.037833 5.725L1.46283 0.725C1.5295 0.508333 1.64617 0.333333 1.81283 0.2C1.9795 0.0666665 2.1795 0 2.41283 0H17.5628C17.7962 0 17.9962 0.0666665 18.1628 0.2C18.3295 0.333333 18.4462 0.508333 18.5128 0.725L19.9378 5.725C20.0212 6.04167 19.9668 6.33333 19.7748 6.6C19.5835 6.86667 19.3212 7 18.9878 7H16.7878L17.8378 14.875C17.8712 15.175 17.7922 15.4377 17.6008 15.663C17.4088 15.8877 17.1628 16 16.8628 16C16.6128 16 16.3922 15.9207 16.2008 15.762C16.0088 15.604 15.8962 15.4 15.8628 15.15L15.3128 11H4.66283L4.11283 15.15C4.0795 15.4 3.96683 15.604 3.77483 15.762C3.5835 15.9207 3.36283 16 3.11283 16Z" fill="#FF0000"/>
</svg>
