<svg width="37" height="34" viewBox="0 0 37 34" fill="none" xmlns="http://www.w3.org/2000/svg">
<path d="M33.602 0H14.7245C12.8509 0 11.3265 1.52524 11.3265 3.4V3.77778H9.43878C7.9621 3.77778 6.70236 4.72517 6.23488 6.04444H1.13265C0.507126 6.04444 0 6.55188 0 7.17778C0 7.80368 0.507126 8.31111 1.13265 8.31111H6.23488C6.70236 9.63039 7.9621 10.5778 9.43878 10.5778H11.3265V10.9556C11.3265 12.8303 12.8509 14.3556 14.7245 14.3556H18.1224V15.4889C18.1224 17.3636 19.6468 18.8889 21.5204 18.8889H22.6531V20.0222C22.6531 21.2721 23.6693 22.2889 24.9184 22.2889V24.9542C23.2218 25.1428 21.898 26.5863 21.898 28.3333V30.6C21.898 32.4748 23.4223 34 25.2959 34H31.3367C33.2104 34 34.7347 32.4748 34.7347 30.6V14.1614C36.0532 13.6936 37 12.4331 37 10.9556V3.4C37 1.52524 35.4757 0 33.602 0ZM11.3265 8.31111H9.43878C8.81423 8.31111 8.30612 7.8027 8.30612 7.17778C8.30612 6.55286 8.81423 6.04444 9.43878 6.04444H11.3265V8.31111ZM22.6531 16.6222H21.5204C20.8959 16.6222 20.3878 16.1138 20.3878 15.4889V14.3556H22.6531V16.6222ZM32.4694 30.6C32.4694 31.2249 31.9613 31.7333 31.3367 31.7333H25.2959C24.6714 31.7333 24.1633 31.2249 24.1633 30.6V28.3333C24.1633 27.7084 24.6714 27.2 25.2959 27.2H26.051C26.6765 27.2 27.1837 26.6926 27.1837 26.0667V22.2889C27.1837 21.039 26.1675 20.0222 24.9184 20.0222V14.3556H32.4694V30.6ZM34.7347 10.9556C34.7347 11.5805 34.2266 12.0889 33.602 12.0889H23.7857H14.7245C14.0999 12.0889 13.5918 11.5805 13.5918 10.9556V3.4C13.5918 2.77508 14.0999 2.26667 14.7245 2.26667H33.602C34.2266 2.26667 34.7347 2.77508 34.7347 3.4V10.9556ZM32.4694 5.66667C32.4694 6.29257 31.9623 6.8 31.3367 6.8H26.051C25.4255 6.8 24.9184 6.29257 24.9184 5.66667C24.9184 5.04076 25.4255 4.53333 26.051 4.53333H31.3367C31.9623 4.53333 32.4694 5.04076 32.4694 5.66667ZM27.5612 17.7556C27.5612 17.1297 28.0684 16.6222 28.6939 16.6222H29.0714C29.697 16.6222 30.2041 17.1297 30.2041 17.7556C30.2041 18.3815 29.697 18.8889 29.0714 18.8889H28.6939C28.0684 18.8889 27.5612 18.3815 27.5612 17.7556Z" fill="#FF0000"/>
</svg>
