<svg width="32" height="27" viewBox="0 0 32 27" fill="none" xmlns="http://www.w3.org/2000/svg">
<path d="M6 24H15V22.5H6V24ZM7.125 10.5H13.875C14.175 10.5 14.4375 10.3875 14.6625 10.1625C14.8875 9.9375 15 9.675 15 9.375C15 9.075 14.8875 8.8125 14.6625 8.5875C14.4375 8.3625 14.175 8.25 13.875 8.25H7.125C6.825 8.25 6.5625 8.3625 6.3375 8.5875C6.1125 8.8125 6 9.075 6 9.375C6 9.675 6.1125 9.9375 6.3375 10.1625C6.5625 10.3875 6.825 10.5 7.125 10.5ZM7.125 6.75H13.875C14.175 6.75 14.4375 6.6375 14.6625 6.4125C14.8875 6.1875 15 5.925 15 5.625C15 5.325 14.8875 5.0625 14.6625 4.8375C14.4375 4.6125 14.175 4.5 13.875 4.5H7.125C6.825 4.5 6.5625 4.6125 6.3375 4.8375C6.1125 5.0625 6 5.325 6 5.625C6 5.925 6.1125 6.1875 6.3375 6.4125C6.5625 6.6375 6.825 6.75 7.125 6.75ZM21 12V9H24V6H21V3H24C24.825 3 25.5315 3.294 26.1195 3.882C26.7065 4.469 27 5.175 27 6H30C30.425 6 30.781 6.1435 31.068 6.4305C31.356 6.7185 31.5 7.075 31.5 7.5C31.5 7.925 31.356 8.281 31.068 8.568C30.781 8.856 30.425 9 30 9H27C27 9.825 26.7065 10.531 26.1195 11.118C25.5315 11.706 24.825 12 24 12H21ZM15 19.5H12V12H18V3H6C5.175 3 4.469 3.294 3.882 3.882C3.294 4.469 3 5.175 3 6V9C3 9.825 3.294 10.531 3.882 11.118C4.469 11.706 5.175 12 6 12H9V19.5H6V15C4.35 15 2.9375 14.4125 1.7625 13.2375C0.5875 12.0625 0 10.65 0 9V6C0 4.35 0.5875 2.9375 1.7625 1.7625C2.9375 0.5875 4.35 0 6 0H18C18.825 0 19.5315 0.2935 20.1195 0.8805C20.7065 1.4685 21 2.175 21 3V12C21 12.825 20.7065 13.531 20.1195 14.118C19.5315 14.706 18.825 15 18 15H15V19.5ZM5.25 27C4.625 27 4.094 26.781 3.657 26.343C3.219 25.906 3 25.375 3 24.75V21.75C3 21.125 3.219 20.594 3.657 20.157C4.094 19.719 4.625 19.5 5.25 19.5H15.75C16.375 19.5 16.906 19.719 17.343 20.157C17.781 20.594 18 21.125 18 21.75V24.75C18 25.375 17.781 25.906 17.343 26.343C16.906 26.781 16.375 27 15.75 27H5.25Z" fill="#FF0000"/>
</svg>
